<svg width="64" height="64" viewBox="0 0 64 64" fill="none" xmlns="http://www.w3.org/2000/svg">
<g clip-path="url(#clip0_681_80)">
<circle cx="32" cy="32" r="32" fill="#066FD1"/>
<path d="M35.7367 18.0911L38.5046 13.5L51.3663 26.3746L46.7679 29.1315L35.7367 18.0911ZM21.05 23.8613L35.4691 22.1839L42.6842 28.9377L40.8869 42.3844L23.2035 46.3683C21.8396 46.6681 20.413 46.4518 19.1992 45.7612L28.8778 36.7248C30.557 37.4759 32.5739 36.9869 33.6515 35.5697C34.7273 34.1488 34.552 32.215 33.2345 30.986C31.9169 29.757 29.8392 29.5928 28.3186 30.5985C26.7981 31.6005 26.274 33.4808 27.0804 35.0493L17.4037 44.0728C17.0463 43.53 16.8061 42.9187 16.6984 42.2778C16.5907 41.6369 16.6179 40.9806 16.7782 40.3508L21.05 23.8613Z" fill="white"/>
</g>
<defs>
<clipPath id="clip0_681_80">
<rect width="64" height="64" fill="white"/>
</clipPath>
</defs>
</svg>
