<svg width="64" height="64" viewBox="0 0 64 64" fill="none" xmlns="http://www.w3.org/2000/svg">
<g clip-path="url(#clip0_681_80)">
<circle cx="32" cy="32" r="32" fill="#066FD1"/>
<g clip-path="url(#clip1_681_80)">
<path d="M40.1834 15.251L36.3758 19.0654L44.9343 27.624L48.742 23.8164C50.239 22.3193 50.239 19.8994 48.742 18.4023L45.5974 15.251C44.1004 13.7539 41.6804 13.7539 40.1834 15.251ZM34.6873 20.4668L34.0584 20.6582L24.2078 23.6113C22.8474 24.0215 21.7674 25.0605 21.3162 26.4141L15.2595 44.4746C14.9998 45.2471 15.1912 46.1084 15.7586 46.6895L26.2586 36.1963C26.0535 35.7656 25.9373 35.2871 25.9373 34.7812C25.9373 32.9697 27.407 31.5 29.2185 31.5C31.03 31.5 32.4998 32.9697 32.4998 34.7812C32.4998 36.5928 31.03 38.0625 29.2185 38.0625C28.7127 38.0625 28.2342 37.9463 27.8035 37.7412L17.3035 48.2412C17.8914 48.8086 18.7459 49.0068 19.5183 48.7402L37.5857 42.6836C38.9324 42.2324 39.9783 41.1523 40.3884 39.792L43.3416 29.9414L43.5261 29.3125L34.6873 20.4668Z" fill="white"/>
</g>
</g>
<defs>
<clipPath id="clip0_681_80">
<rect width="64" height="64" fill="white"/>
</clipPath>
<clipPath id="clip1_681_80">
<rect width="35" height="35" fill="white" transform="translate(15 14)"/>
</clipPath>
</defs>
</svg>
